<svg version="1.1" id="Layer_1" xmlns="http://www.w3.org/2000/svg" xmlns:xlink="http://www.w3.org/1999/xlink" x="0px" y="0px"
	 width="100%" viewBox="0 0 800 799" enable-background="new 0 0 800 799" xml:space="preserve">
<path fill="#262122" opacity="1.000000" stroke="none" 
	d="
M354.000000,1.000000 
	C385.020905,1.000000 416.041779,1.000000 447.613312,1.382373 
	C448.670990,2.140301 449.136047,2.759989 449.691254,2.855500 
	C461.586914,4.901807 473.627777,6.306783 485.364044,9.028246 
	C501.956268,12.875738 518.638184,16.773092 534.721863,22.283327 
	C565.124451,32.699181 593.690735,47.044952 620.700195,64.656776 
	C640.491150,77.561699 659.432251,91.584320 676.151550,108.090729 
	C692.529175,124.259834 708.146301,141.421906 722.314148,159.542282 
	C735.645386,176.592651 747.877625,194.740707 756.955383,214.592667 
	C765.450134,233.169662 774.031799,251.766983 781.195862,270.872589 
	C786.521729,285.076141 790.083435,300.001740 793.598328,314.803497 
	C796.114075,325.397888 797.210754,336.326630 799.068909,347.084015 
	C799.250610,348.135803 800.334778,349.031708 801.000000,350.000000 
	C801.000000,386.020905 801.000000,422.041779 800.620239,458.611694 
	C798.175659,467.064301 796.236938,475.003448 794.020447,482.864227 
	C788.922852,500.942627 784.505554,519.270264 778.273987,536.954773 
	C772.490417,553.367737 765.309265,569.369202 757.671753,585.029175 
	C746.022339,608.915283 730.997803,630.742493 714.457886,651.533142 
	C700.265564,669.372925 684.682434,685.915039 667.484558,700.831299 
	C657.110291,709.829346 646.348755,718.500732 635.043274,726.274780 
	C621.167419,735.816223 606.793152,744.705627 592.180054,753.084534 
	C571.948547,764.684814 550.553406,773.900513 528.287292,780.869507 
	C515.828247,784.769043 503.196533,788.213013 490.481415,791.168640 
	C479.864990,793.636414 468.996429,795.003296 458.276794,797.052429 
	C454.790771,797.718811 451.422272,799.000061 448.000000,800.000000 
	C416.979095,800.000000 385.958221,800.000000 354.389801,799.621155 
	C352.840240,798.823364 351.874695,798.217346 350.830658,798.013428 
	C333.820038,794.691284 316.572998,792.284363 299.842651,787.902222 
	C281.935425,783.211853 263.916107,778.027771 247.028137,770.598633 
	C225.389755,761.079590 204.150024,750.213684 184.019608,737.843384 
	C167.153748,727.479187 151.757446,714.572937 136.382309,701.972473 
	C118.255775,687.116882 102.111092,670.068970 87.930458,651.450256 
	C76.006538,635.794617 64.599930,619.603333 54.540424,602.710632 
	C45.212303,587.046143 37.181877,570.474060 30.050064,553.677368 
	C23.867804,539.117126 19.745594,523.682190 14.712708,508.633881 
	C8.704498,490.669373 5.396254,472.132782 2.905208,453.413483 
	C2.788965,452.539978 1.658246,451.801422 0.999997,451.000000 
	C1.000000,418.645782 1.000000,386.291534 1.390278,353.379700 
	C2.187211,351.812744 2.776726,350.837646 2.973256,349.788940 
	C6.228089,332.420685 8.570627,314.825775 12.878661,297.725342 
	C17.755276,278.367981 24.512182,259.566406 32.513416,241.131516 
	C41.693447,219.980621 52.185162,199.592194 65.169006,180.696060 
	C76.684578,163.936783 89.489784,147.998108 102.534035,132.371979 
	C117.568253,114.361984 134.964767,98.552994 153.650299,84.460693 
	C168.441086,73.305763 184.186462,63.345638 199.953964,53.574680 
	C219.765457,41.297703 240.931824,31.557846 262.965454,24.034620 
	C279.221954,18.483952 295.800903,13.761581 312.455688,9.535226 
	C323.004730,6.858275 333.975555,5.872048 344.716644,3.905734 
	C347.882324,3.326207 350.909393,1.989633 354.000000,1.000000 
M116.485001,136.097427 
	C116.356216,136.447540 116.227432,136.797653 116.178627,137.110764 
	C116.178627,137.110764 116.249329,137.163361 115.547821,137.095871 
	C107.370399,146.746399 98.712952,156.033905 91.094772,166.107361 
	C47.223232,224.118423 21.780903,289.459808 14.253166,361.771149 
	C13.398445,369.981598 13.124379,378.252472 12.536641,387.169342 
	C14.837222,386.387573 16.238190,385.958649 17.605032,385.439819 
	C33.803196,379.291321 49.984707,373.098785 66.192589,366.976044 
	C160.632462,331.300079 257.619202,307.483551 359.014740,304.460144 
	C363.812103,304.317108 365.767731,302.457794 367.783966,298.438629 
	C393.892365,246.394547 436.248566,218.836548 494.393005,218.539017 
	C556.715515,218.220078 610.462158,261.145294 626.222473,321.477509 
	C627.172974,325.116180 628.971558,326.282104 632.445679,327.242279 
	C653.778564,333.138245 675.467224,338.169739 696.163696,345.844940 
	C725.504150,356.725708 754.085876,369.651703 783.001770,381.679901 
	C784.786682,382.422363 786.657593,382.957855 789.177185,383.827271 
	C789.177185,381.288452 789.367737,379.490082 789.147888,377.743378 
	C786.841858,359.418610 785.820129,340.807648 781.898987,322.830780 
	C755.128296,200.098755 685.488342,109.585686 573.910461,52.375717 
	C504.429657,16.750422 430.026337,5.259255 352.525085,14.836189 
	C283.674133,23.344200 221.691101,48.938488 166.345779,90.692871 
	C165.089172,91.640892 164.128830,92.981606 162.998062,94.068825 
	C162.998062,94.068825 163.072235,94.046852 162.452301,93.987648 
	C162.287445,94.327744 162.122589,94.667839 161.970947,94.957939 
	C161.970947,94.957939 162.022400,94.963142 161.366653,94.804222 
	C160.922211,95.256012 160.477783,95.707794 160.029770,96.053108 
	C160.029770,96.053108 160.136154,96.058670 159.473648,96.180344 
	C159.230301,96.543648 158.986954,96.906960 158.246841,97.639130 
	C143.194809,108.147812 129.767044,120.393005 117.703468,134.872391 
	C117.480736,135.274567 117.258011,135.676743 117.020561,136.009949 
	C117.020561,136.009949 117.085808,136.036774 116.485001,136.097427 
M92.921547,448.160156 
	C94.899384,447.951324 96.951439,448.012787 98.843910,447.493103 
	C126.899948,439.788879 154.740784,431.187073 183.034286,424.496521 
	C206.939636,418.843658 231.295319,414.953156 255.581299,411.099457 
	C273.282806,408.290558 291.160767,406.420593 309.022919,404.844208 
	C328.384766,403.135437 347.821625,402.284210 367.220184,400.976227 
	C370.266937,400.770813 371.695770,402.180847 372.771362,404.821350 
	C374.402283,408.825043 376.218445,412.771088 378.222229,416.602386 
	C403.821259,465.548309 457.009644,492.862091 511.638031,484.645325 
	C551.160645,478.700684 581.853882,458.117065 603.281799,424.210724 
	C605.189209,421.192535 607.188538,420.665894 610.284119,421.288544 
	C659.695068,431.227203 707.713379,445.936676 754.916199,463.444000 
	C765.023132,467.192596 775.106567,471.004303 785.455200,474.882263 
	C786.051819,472.721252 786.626770,470.996338 787.001160,469.228973 
	C791.884705,446.177124 794.233582,422.961151 792.222839,399.360321 
	C791.883728,395.379730 790.579773,393.555511 787.051758,392.096619 
	C768.283813,384.335724 749.552673,376.479614 730.917480,368.405396 
	C696.921692,353.675751 662.240234,341.070618 625.704895,334.246887 
	C621.719238,333.502441 620.322937,331.926758 619.430359,328.127655 
	C606.448181,272.869385 561.506287,232.485916 505.815460,227.250961 
	C465.631866,223.473694 430.547699,236.132858 401.474762,264.267334 
	C388.658112,276.670258 379.095367,291.472321 372.370331,308.072296 
	C371.735046,309.640472 370.130524,311.479614 368.621674,311.889893 
	C365.623352,312.705109 362.381714,312.664398 359.234161,312.885590 
	C340.005066,314.236847 320.689697,314.840973 301.565094,317.078491 
	C277.492340,319.894897 253.422012,323.238861 229.624039,327.786072 
	C186.624680,336.002289 144.415680,347.468445 103.124069,362.096436 
	C82.291870,369.476440 61.619534,377.307739 40.156281,385.076263 
	C31.486441,388.421295 22.764868,391.642914 14.198178,395.234009 
	C12.786890,395.825653 11.181171,398.013824 11.139777,399.505066 
	C10.483818,423.135742 11.004857,446.661499 16.582476,469.865875 
	C17.774399,474.824615 19.291851,475.273132 23.530952,473.750061 
	C43.817764,466.461365 64.193527,459.420502 84.492416,452.164917 
	C87.150536,451.214844 89.547722,449.534698 92.921547,448.160156 
M144.195816,441.923737 
	C104.316414,452.772766 65.134453,465.732361 26.494267,480.394104 
	C21.633102,482.238617 20.898769,484.295441 22.091225,489.082489 
	C43.655636,575.651367 89.069824,647.062317 158.738190,702.671570 
	C223.144852,754.080872 297.040466,781.553894 379.151764,786.672485 
	C402.528351,788.129639 425.941437,787.113708 449.273132,784.191467 
	C496.135895,778.322083 540.436951,764.549316 582.195984,742.494202 
	C635.299133,714.447632 679.429932,676.011230 714.940430,627.682739 
	C720.892273,619.582458 725.821838,610.731018 731.662415,601.702271 
	C735.894348,594.780457 740.473206,588.044434 744.297974,580.904419 
	C760.416931,550.813904 772.059265,519.017700 779.882141,485.803741 
	C780.597595,482.766144 780.047302,481.091949 776.678162,479.910767 
	C765.219116,475.893433 753.948853,471.341675 742.537231,467.184204 
	C700.896973,452.013916 658.491333,439.481110 615.133362,430.198669 
	C610.918396,429.296295 608.830139,430.553955 606.086548,433.829620 
	C597.898987,443.604889 590.047913,454.085083 580.213318,461.984070 
	C538.862183,495.196899 492.619232,502.895752 442.913330,484.155396 
	C408.358612,471.127441 383.604919,446.787903 367.981323,413.350159 
	C366.266785,409.680634 364.355713,408.611938 360.490509,408.940033 
	C350.224762,409.811462 339.925903,410.299530 329.638062,410.902496 
	C295.571136,412.899292 261.703735,416.834808 228.243637,423.407440 
	C200.347687,428.887054 172.719284,435.728699 144.195816,441.923737 
z"/>
<path fill="#000000" opacity="1.000000" stroke="none" 
	d="
M0.999997,451.468658 
	C1.658246,451.801422 2.788965,452.539978 2.905208,453.413483 
	C5.396254,472.132782 8.704498,490.669373 14.712708,508.633881 
	C19.745594,523.682190 23.867804,539.117126 30.050064,553.677368 
	C37.181877,570.474060 45.212303,587.046143 54.540424,602.710632 
	C64.599930,619.603333 76.006538,635.794617 87.930458,651.450256 
	C102.111092,670.068970 118.255775,687.116882 136.382309,701.972473 
	C151.757446,714.572937 167.153748,727.479187 184.019608,737.843384 
	C204.150024,750.213684 225.389755,761.079590 247.028137,770.598633 
	C263.916107,778.027771 281.935425,783.211853 299.842651,787.902222 
	C316.572998,792.284363 333.820038,794.691284 350.830658,798.013428 
	C351.874695,798.217346 352.840240,798.823364 353.921143,799.621155 
	C236.406677,800.000000 118.813347,800.000000 1.000000,800.000000 
	C1.000000,683.979187 1.000000,567.958252 0.999997,451.468658 
z"/>
<path fill="#000000" opacity="1.000000" stroke="none" 
	d="
M353.531342,1.000000 
	C350.909393,1.989633 347.882324,3.326207 344.716644,3.905734 
	C333.975555,5.872048 323.004730,6.858275 312.455688,9.535226 
	C295.800903,13.761581 279.221954,18.483952 262.965454,24.034620 
	C240.931824,31.557846 219.765457,41.297703 199.953964,53.574680 
	C184.186462,63.345638 168.441086,73.305763 153.650299,84.460693 
	C134.964767,98.552994 117.568253,114.361984 102.534035,132.371979 
	C89.489784,147.998108 76.684578,163.936783 65.169006,180.696060 
	C52.185162,199.592194 41.693447,219.980621 32.513416,241.131516 
	C24.512182,259.566406 17.755276,278.367981 12.878661,297.725342 
	C8.570627,314.825775 6.228089,332.420685 2.973256,349.788940 
	C2.776726,350.837646 2.187211,351.812744 1.390278,352.911041 
	C1.000000,235.739487 1.000000,118.478981 1.000000,1.000000 
	C118.354134,1.000000 235.708405,1.000000 353.531342,1.000000 
z"/>
<path fill="#000000" opacity="1.000000" stroke="none" 
	d="
M801.000000,349.531311 
	C800.334778,349.031708 799.250610,348.135803 799.068909,347.084015 
	C797.210754,336.326630 796.114075,325.397888 793.598328,314.803497 
	C790.083435,300.001740 786.521729,285.076141 781.195862,270.872589 
	C774.031799,251.766983 765.450134,233.169662 756.955383,214.592667 
	C747.877625,194.740707 735.645386,176.592651 722.314148,159.542282 
	C708.146301,141.421906 692.529175,124.259834 676.151550,108.090729 
	C659.432251,91.584320 640.491150,77.561699 620.700195,64.656776 
	C593.690735,47.044952 565.124451,32.699181 534.721863,22.283327 
	C518.638184,16.773092 501.956268,12.875738 485.364044,9.028246 
	C473.627777,6.306783 461.586914,4.901807 449.691254,2.855500 
	C449.136047,2.759989 448.670990,2.140301 448.081970,1.382373 
	C565.593323,1.000000 683.186584,1.000000 801.000000,1.000000 
	C801.000000,117.020805 801.000000,233.041748 801.000000,349.531311 
z"/>
<path fill="#000000" opacity="1.000000" stroke="none" 
	d="
M448.468658,800.000000 
	C451.422272,799.000061 454.790771,797.718811 458.276794,797.052429 
	C468.996429,795.003296 479.864990,793.636414 490.481415,791.168640 
	C503.196533,788.213013 515.828247,784.769043 528.287292,780.869507 
	C550.553406,773.900513 571.948547,764.684814 592.180054,753.084534 
	C606.793152,744.705627 621.167419,735.816223 635.043274,726.274780 
	C646.348755,718.500732 657.110291,709.829346 667.484558,700.831299 
	C684.682434,685.915039 700.265564,669.372925 714.457886,651.533142 
	C730.997803,630.742493 746.022339,608.915283 757.671753,585.029175 
	C765.309265,569.369202 772.490417,553.367737 778.273987,536.954773 
	C784.505554,519.270264 788.922852,500.942627 794.020447,482.864227 
	C796.236938,475.003448 798.175659,467.064301 800.620239,459.080383 
	C801.000000,572.594971 801.000000,686.190002 801.000000,800.000000 
	C683.645874,800.000000 566.291565,800.000000 448.468658,800.000000 
z"/>
<path fill="#EF4036" opacity="1.000000" stroke="none" 
	d="
M163.030304,94.139145 
	C164.128830,92.981606 165.089172,91.640892 166.345779,90.692871 
	C221.691101,48.938488 283.674133,23.344200 352.525085,14.836189 
	C430.026337,5.259255 504.429657,16.750422 573.910461,52.375717 
	C685.488342,109.585686 755.128296,200.098755 781.898987,322.830780 
	C785.820129,340.807648 786.841858,359.418610 789.147888,377.743378 
	C789.367737,379.490082 789.177185,381.288452 789.177185,383.827271 
	C786.657593,382.957855 784.786682,382.422363 783.001770,381.679901 
	C754.085876,369.651703 725.504150,356.725708 696.163696,345.844940 
	C675.467224,338.169739 653.778564,333.138245 632.445679,327.242279 
	C628.971558,326.282104 627.172974,325.116180 626.222473,321.477509 
	C610.462158,261.145294 556.715515,218.220078 494.393005,218.539017 
	C436.248566,218.836548 393.892365,246.394547 367.783966,298.438629 
	C365.767731,302.457794 363.812103,304.317108 359.014740,304.460144 
	C257.619202,307.483551 160.632462,331.300079 66.192589,366.976044 
	C49.984707,373.098785 33.803196,379.291321 17.605032,385.439819 
	C16.238190,385.958649 14.837222,386.387573 12.536641,387.169342 
	C13.124379,378.252472 13.398445,369.981598 14.253166,361.771149 
	C21.780903,289.459808 47.223232,224.118423 91.094772,166.107361 
	C98.712952,156.033905 107.370399,146.746399 116.005768,137.490799 
	C108.661133,149.784637 102.136368,162.262253 98.541588,176.152435 
	C86.521599,222.597427 113.856514,258.295746 161.682465,258.182617 
	C194.367874,258.105286 222.191711,245.034866 246.796036,224.559387 
	C269.373199,205.770859 286.005432,182.828979 292.463654,153.624084 
	C301.830536,111.265541 277.589172,78.770065 234.415405,75.716949 
	C210.541489,74.028656 188.679123,80.925323 167.922791,92.124802 
	C166.379089,92.957733 164.665115,93.475090 163.030304,94.139145 
z"/>
<path fill="#FFFFFF" opacity="1.000000" stroke="none" 
	d="
M144.972382,441.967102 
	C172.719284,435.728699 200.347687,428.887054 228.243637,423.407440 
	C261.703735,416.834808 295.571136,412.899292 329.638062,410.902496 
	C339.925903,410.299530 350.224762,409.811462 360.490509,408.940033 
	C364.355713,408.611938 366.266785,409.680634 367.981323,413.350159 
	C383.604919,446.787903 408.358612,471.127441 442.913330,484.155396 
	C492.619232,502.895752 538.862183,495.196899 580.213318,461.984070 
	C590.047913,454.085083 597.898987,443.604889 606.086548,433.829620 
	C608.830139,430.553955 610.918396,429.296295 615.133362,430.198669 
	C658.491333,439.481110 700.896973,452.013916 742.537231,467.184204 
	C753.948853,471.341675 765.219116,475.893433 776.678162,479.910767 
	C780.047302,481.091949 780.597595,482.766144 779.882141,485.803741 
	C772.059265,519.017700 760.416931,550.813904 744.297974,580.904419 
	C740.473206,588.044434 735.894348,594.780457 731.093994,601.868103 
	C727.293762,604.617859 723.880066,607.006165 720.858643,609.816223 
	C692.972534,635.751343 662.012512,657.097351 627.296448,672.896423 
	C560.088989,703.482239 490.092987,712.117188 417.551025,698.801086 
	C351.671661,686.708069 294.080261,657.483521 244.959961,612.095032 
	C204.414871,574.630127 174.663422,529.654175 155.643173,477.790161 
	C151.361481,466.114929 148.491974,453.921844 144.972382,441.967102 
z"/>
<path fill="#A19E9E" opacity="1.000000" stroke="none" 
	d="
M144.584106,441.945435 
	C148.491974,453.921844 151.361481,466.114929 155.643173,477.790161 
	C174.663422,529.654175 204.414871,574.630127 244.959961,612.095032 
	C294.080261,657.483521 351.671661,686.708069 417.551025,698.801086 
	C490.092987,712.117188 560.088989,703.482239 627.296448,672.896423 
	C662.012512,657.097351 692.972534,635.751343 720.858643,609.816223 
	C723.880066,607.006165 727.293762,604.617859 730.874634,602.130249 
	C725.821838,610.731018 720.892273,619.582458 714.940430,627.682739 
	C679.429932,676.011230 635.299133,714.447632 582.195984,742.494202 
	C540.436951,764.549316 496.135895,778.322083 449.273132,784.191467 
	C425.941437,787.113708 402.528351,788.129639 379.151764,786.672485 
	C297.040466,781.553894 223.144852,754.080872 158.738190,702.671570 
	C89.069824,647.062317 43.655636,575.651367 22.091225,489.082489 
	C20.898769,484.295441 21.633102,482.238617 26.494267,480.394104 
	C65.134453,465.732361 104.316414,452.772766 144.584106,441.945435 
z"/>
<path fill="#58585A" opacity="1.000000" stroke="none" 
	d="
M40.874916,384.934967 
	C61.619534,377.307739 82.291870,369.476440 103.124069,362.096436 
	C144.415680,347.468445 186.624680,336.002289 229.624039,327.786072 
	C253.422012,323.238861 277.492340,319.894897 301.565094,317.078491 
	C320.689697,314.840973 340.005066,314.236847 359.234161,312.885590 
	C362.381714,312.664398 365.623352,312.705109 368.621674,311.889893 
	C370.130524,311.479614 371.735046,309.640472 372.370331,308.072296 
	C379.095367,291.472321 388.658112,276.670258 401.474762,264.267334 
	C430.547699,236.132858 465.631866,223.473694 505.815460,227.250961 
	C561.506287,232.485916 606.448181,272.869385 619.430359,328.127655 
	C620.322937,331.926758 621.719238,333.502441 625.704895,334.246887 
	C662.240234,341.070618 696.921692,353.675751 730.917480,368.405396 
	C749.552673,376.479614 768.283813,384.335724 787.051758,392.096619 
	C790.579773,393.555511 791.883728,395.379730 792.222839,399.360321 
	C794.233582,422.961151 791.884705,446.177124 787.001160,469.228973 
	C786.626770,470.996338 786.051819,472.721252 785.455200,474.882263 
	C775.106567,471.004303 765.023132,467.192596 754.916199,463.444000 
	C707.713379,445.936676 659.695068,431.227203 610.284119,421.288544 
	C607.188538,420.665894 605.189209,421.192535 603.281799,424.210724 
	C581.853882,458.117065 551.160645,478.700684 511.638031,484.645325 
	C457.009644,492.862091 403.821259,465.548309 378.222229,416.602386 
	C376.218445,412.771088 374.402283,408.825043 372.771362,404.821350 
	C371.695770,402.180847 370.266937,400.770813 367.220184,400.976227 
	C347.821625,402.284210 328.384766,403.135437 309.022919,404.844208 
	C291.160767,406.420593 273.282806,408.290558 255.581299,411.099457 
	C231.295319,414.953156 206.939636,418.843658 183.034286,424.496521 
	C154.740784,431.187073 126.899948,439.788879 98.843910,447.493103 
	C96.951439,448.012787 94.899384,447.951324 92.170143,447.974487 
	C89.704544,447.177551 88.002373,446.529785 86.274338,445.960510 
	C60.409260,437.439178 40.946293,411.570160 40.874916,384.934967 
M410.851227,396.636444 
	C434.936432,444.006958 492.090668,462.609711 539.768921,438.596924 
	C586.518250,415.052032 605.262085,357.592773 581.776855,310.477936 
	C557.913940,262.605621 500.080444,244.841995 454.373810,267.363342 
	C406.206848,291.096954 386.880432,348.051147 410.851227,396.636444 
z"/>
<path fill="#FFFEFE" opacity="1.000000" stroke="none" 
	d="
M163.014191,94.103989 
	C164.665115,93.475090 166.379089,92.957733 167.922791,92.124802 
	C188.679123,80.925323 210.541489,74.028656 234.415405,75.716949 
	C277.589172,78.770065 301.830536,111.265541 292.463654,153.624084 
	C286.005432,182.828979 269.373199,205.770859 246.796036,224.559387 
	C222.191711,245.034866 194.367874,258.105286 161.682465,258.182617 
	C113.856514,258.295746 86.521599,222.597427 98.541588,176.152435 
	C102.136368,162.262253 108.661133,149.784637 116.356522,137.524536 
	C116.249329,137.163361 116.178627,137.110764 116.485870,137.199371 
	C116.890671,136.870911 116.988235,136.453842 117.085808,136.036774 
	C117.085808,136.036774 117.020561,136.009949 117.381485,136.046326 
	C117.973114,135.681198 118.203827,135.279724 118.434540,134.878235 
	C129.767044,120.393005 143.194809,108.147812 158.834930,97.378059 
	C159.660736,96.764221 159.898438,96.411446 160.136154,96.058670 
	C160.136154,96.058670 160.029770,96.053108 160.361938,96.159058 
	C161.136871,95.831047 161.579636,95.397095 162.022400,94.963142 
	C162.022400,94.963142 161.970947,94.957939 162.286377,95.004654 
	C162.758621,94.716537 162.915421,94.381691 163.072235,94.046852 
	C163.072235,94.046852 162.998062,94.068825 163.014191,94.103989 
z"/>
<path fill="#363638" opacity="1.000000" stroke="none" 
	d="
M40.515598,385.005615 
	C40.946293,411.570160 60.409260,437.439178 86.274338,445.960510 
	C88.002373,446.529785 89.704544,447.177551 91.742249,447.990784 
	C89.547722,449.534698 87.150536,451.214844 84.492416,452.164917 
	C64.193527,459.420502 43.817764,466.461365 23.530952,473.750061 
	C19.291851,475.273132 17.774399,474.824615 16.582476,469.865875 
	C11.004857,446.661499 10.483818,423.135742 11.139777,399.505066 
	C11.181171,398.013824 12.786890,395.825653 14.198178,395.234009 
	C22.764868,391.642914 31.486441,388.421295 40.515598,385.005615 
z"/>
<path fill="#EF4036" opacity="1.000000" stroke="none" 
	d="
M161.694519,94.883682 
	C161.579636,95.397095 161.136871,95.831047 160.363708,96.212288 
	C160.477783,95.707794 160.922211,95.256012 161.694519,94.883682 
z"/>
<path fill="#EF4036" opacity="1.000000" stroke="none" 
	d="
M162.762268,94.017250 
	C162.915421,94.381691 162.758621,94.716537 162.279785,95.029648 
	C162.122589,94.667839 162.287445,94.327744 162.762268,94.017250 
z"/>
<path fill="#EF4036" opacity="1.000000" stroke="none" 
	d="
M159.804901,96.119507 
	C159.898438,96.411446 159.660736,96.764221 159.083313,97.193626 
	C158.986954,96.906960 159.230301,96.543648 159.804901,96.119507 
z"/>
<path fill="#EF4036" opacity="1.000000" stroke="none" 
	d="
M118.069000,134.875305 
	C118.203827,135.279724 117.973114,135.681198 117.388840,136.080811 
	C117.258011,135.676743 117.480736,135.274567 118.069000,134.875305 
z"/>
<path fill="#EF4036" opacity="1.000000" stroke="none" 
	d="
M116.785400,136.067108 
	C116.988235,136.453842 116.890671,136.870911 116.445877,137.217865 
	C116.227432,136.797653 116.356216,136.447540 116.785400,136.067108 
z"/>
<path fill="#282526" opacity="1.000000" stroke="none" 
	d="
M410.683472,396.303436 
	C386.880432,348.051147 406.206848,291.096954 454.373810,267.363342 
	C500.080444,244.841995 557.913940,262.605621 581.776855,310.477936 
	C605.262085,357.592773 586.518250,415.052032 539.768921,438.596924 
	C492.090668,462.609711 434.936432,444.006958 410.683472,396.303436 
M560.387939,294.117615 
	C537.471130,270.532440 509.783142,261.483398 477.579071,268.084290 
	C431.794464,277.468781 401.666962,323.057098 410.200623,369.187195 
	C418.826019,415.812927 463.834808,447.860962 510.095367,439.643066 
	C543.240662,433.755035 566.719543,414.800629 578.159485,383.132477 
	C589.882874,350.679657 583.382874,320.861694 560.387939,294.117615 
z"/>
<path fill="#FBFBFB" opacity="1.000000" stroke="none" 
	d="
M560.632935,294.372406 
	C583.382874,320.861694 589.882874,350.679657 578.159485,383.132477 
	C566.719543,414.800629 543.240662,433.755035 510.095367,439.643066 
	C463.834808,447.860962 418.826019,415.812927 410.200623,369.187195 
	C401.666962,323.057098 431.794464,277.468781 477.579071,268.084290 
	C509.783142,261.483398 537.471130,270.532440 560.632935,294.372406 
M552.209961,390.697815 
	C560.573059,378.038086 564.234375,364.139160 563.310669,348.995026 
	C560.944214,310.197906 525.710693,281.382812 487.156433,286.746124 
	C448.197662,292.165710 421.707825,329.499908 430.551422,367.544556 
	C437.090088,395.673645 455.011261,413.642090 483.355377,419.197968 
	C511.716888,424.757233 534.665771,414.515930 552.209961,390.697815 
z"/>
<path fill="#312D2E" opacity="1.000000" stroke="none" 
	d="
M552.017395,391.001984 
	C534.665771,414.515930 511.716888,424.757233 483.355377,419.197968 
	C455.011261,413.642090 437.090088,395.673645 430.551422,367.544556 
	C421.707825,329.499908 448.197662,292.165710 487.156433,286.746124 
	C525.710693,281.382812 560.944214,310.197906 563.310669,348.995026 
	C564.234375,364.139160 560.573059,378.038086 552.017395,391.001984 
M456.673950,400.865326 
	C471.827240,413.111908 489.018372,417.590973 508.160034,414.021881 
	C541.321106,407.838745 563.256592,375.182007 556.941162,341.613129 
	C550.696411,308.420105 517.677795,285.907593 484.648560,292.773926 
	C459.950989,297.908203 443.417511,312.906677 436.758423,337.148895 
	C429.967590,361.871002 437.212036,383.130157 456.673950,400.865326 
z"/>
<path fill="#FEFEFE" opacity="1.000000" stroke="none" 
	d="
M456.403595,400.631775 
	C437.212036,383.130157 429.967590,361.871002 436.758423,337.148895 
	C443.417511,312.906677 459.950989,297.908203 484.648560,292.773926 
	C517.677795,285.907593 550.696411,308.420105 556.941162,341.613129 
	C563.256592,375.182007 541.321106,407.838745 508.160034,414.021881 
	C489.018372,417.590973 471.827240,413.111908 456.403595,400.631775 
z"/>
</svg>